<?xml version="1.0" standalone="no"?><svg xmlns="http://www.w3.org/2000/svg" viewBox="0 0 1440 320"><path fill="#9DD0AF" fill-opacity="1" d="M0,32L34.3,64C68.6,96,137,160,206,160C274.3,160,343,96,411,80C480,64,549,96,617,133.3C685.7,171,754,213,823,224C891.4,235,960,213,1029,181.3C1097.1,149,1166,107,1234,90.7C1302.9,75,1371,85,1406,90.7L1440,96L1440,320L1405.7,320C1371.4,320,1303,320,1234,320C1165.7,320,1097,320,1029,320C960,320,891,320,823,320C754.3,320,686,320,617,320C548.6,320,480,320,411,320C342.9,320,274,320,206,320C137.1,320,69,320,34,320L0,320Z"></path></svg>